<svg xmlns="http://www.w3.org/2000/svg" viewBox="0 0 470 132" role="img" aria-label="Aladiah Academy">
  <title>Aladiah Academy</title>
  <defs>
    <linearGradient id="hS" x1="0" y1="0" x2="0.25" y2="1"><stop offset="0" stop-color="#F4F8FF"/><stop offset="1" stop-color="#9FB2CE"/></linearGradient>
    <linearGradient id="hSr" x1="0" y1="0" x2="0.25" y2="1"><stop offset="0" stop-color="#C8D4E6"/><stop offset="1" stop-color="#6E82A6"/></linearGradient>
    <linearGradient id="hG" x1="0" y1="0" x2="0" y2="1"><stop offset="0" stop-color="#F6D27A"/><stop offset="1" stop-color="#C8902E"/></linearGradient>
    <clipPath id="hGlobe"><path d="M16 99 Q60 117 104 99 L104 120 Q60 134 16 120 Z"/></clipPath>
  </defs>
  <!-- mark -->
  <g clip-path="url(#hGlobe)" fill="#C9A24B" opacity="0.5">
    <circle cx="42" cy="105" r="1.1"/><circle cx="50" cy="103" r="1.1"/><circle cx="58" cy="104" r="1.1"/><circle cx="66" cy="103" r="1.1"/><circle cx="74" cy="105" r="1.1"/><circle cx="46" cy="109" r="1.1"/><circle cx="62" cy="109" r="1.1"/><circle cx="70" cy="110" r="1.1"/>
  </g>
  <path d="M16 99 Q60 117 104 99" stroke="url(#hG)" stroke-width="2.6" fill="none" stroke-linecap="round"/>
  <polygon points="26,98 56,30 63,32 45,98" fill="url(#hS)"/>
  <polygon points="94,98 64,30 57,32 75,98" fill="url(#hSr)"/>
  <polygon points="58,72 62,72 61,96 59,96" fill="url(#hG)"/>
  <path d="M58.5 30 C61.5 28.5 64.5 25.5 64.5 20 A5.5 5.5 0 1 0 58.8 14.8" fill="none" stroke="url(#hG)" stroke-width="3.2" stroke-linecap="round"/>
  <!-- wordmark -->
  <text x="150" y="64" font-family="Georgia, 'Times New Roman', serif" font-size="40" font-weight="600" letter-spacing="6" fill="url(#hS)">ALADIAH</text>
  <text x="153" y="90" font-family="Georgia, 'Times New Roman', serif" font-size="15" letter-spacing="13" fill="url(#hG)">ACADEMY</text>
  <text x="153" y="112" font-family="Inter, Arial, sans-serif" font-size="8.5" font-weight="600" letter-spacing="2.4" fill="#8596AD">INTELLIGENCE. PURPOSE. IMPACT.</text>
</svg>
